HIERARCHY
ROOT hip
{
	OFFSET 0.000000 0.000000 0.000000 
	CHANNELS 6 Xposition Yposition Zposition Xrotation Zrotation Yrotation
	JOINT abdomen
	{
		OFFSET 0.000000 3.402643 0.000000 
		CHANNELS 3 Xrotation Zrotation Yrotation
		JOINT chest
		{
			OFFSET 0.000000 8.438565 -0.680529 
			CHANNELS 3 Xrotation Zrotation Yrotation
			JOINT neck
			{
				OFFSET 0.000000 10.207942 -0.272212 
				CHANNELS 3 Xrotation Zrotation Yrotation
				JOINT head
				{
					OFFSET 0.000000 3.130431 0.000000 
					CHANNELS 3 Xrotation Zrotation Yrotation
					End Site
					{
						OFFSET 0.000000 3.130435 0.000000 
					}
				}
			}
			JOINT lCollar
			{
				OFFSET 3.470700 6.669187 -0.816635 
				CHANNELS 3 Yrotation Zrotation Xrotation
				JOINT lShldr
				{
					OFFSET 3.198488 0.000000 0.000000 
					CHANNELS 3 Zrotation Yrotation Xrotation
					JOINT lForeArm
					{
						OFFSET 10.139888 0.000000 0.000000 
						CHANNELS 3 Yrotation Zrotation Xrotation
						JOINT lHand
						{
							OFFSET 8.370511 0.000000 0.000000 
							CHANNELS 3 Zrotation Yrotation Xrotation
							End Site
							{
								OFFSET 4.083176 0.000000 0.000000 
							}
						}
					}
				}
			}
			JOINT rCollar
			{
				OFFSET -3.470700 6.669187 -0.816635 
				CHANNELS 3 Yrotation Zrotation Xrotation
				JOINT rShldr
				{
					OFFSET -3.198488 0.000000 0.000000 
					CHANNELS 3 Zrotation Yrotation Xrotation
					JOINT rForeArm
					{
						OFFSET -10.139888 0.000000 0.000000 
						CHANNELS 3 Yrotation Zrotation Xrotation
						JOINT rHand
						{
							OFFSET -8.370511 0.000000 0.000000 
							CHANNELS 3 Zrotation Yrotation Xrotation
							End Site
							{
								OFFSET -4.083176 0.000000 0.000000 
							}
						}
					}
				}
			}
		}
	}
	JOINT lThigh
	{
		OFFSET 5.308129 -1.633274 1.361059 
		CHANNELS 3 Xrotation Zrotation Yrotation
		JOINT lShin
		{
			OFFSET -2.041588 -20.007561 0.000000 
			CHANNELS 3 Xrotation Zrotation Yrotation
			JOINT lFoot
			{
				OFFSET 0.000000 -19.190928 -1.224953 
				CHANNELS 3 Xrotation Yrotation Zrotation
				End Site
				{
					OFFSET 0.000000 -2.449906 4.627600 
				}
			}
		}
	}
	JOINT rThigh
	{
		OFFSET -5.308129 -1.633274 1.361059 
		CHANNELS 3 Xrotation Zrotation Yrotation
		JOINT rShin
		{
			OFFSET 2.041588 -20.007561 0.000000 
			CHANNELS 3 Xrotation Zrotation Yrotation
			JOINT rFoot
			{
				OFFSET 0.000000 -19.190928 -1.224953 
				CHANNELS 3 Xrotation Yrotation Zrotation
				End Site
				{
					OFFSET 0.000000 -2.449906 4.627600 
				}
			}
		}
	}
}
MOTION
Frames: 13
Frame Time: 0.016667
-9.347372 34.240578 125.031136 4.056950 -11.553800 22.358900 -21.898701 4.248120 2.460220 7.201750 -1.596280 1.814310 -14.803638 35.430080 -25.769455 -3.305530 14.034300 -7.302400 2.000000 -2.000000 0.000000 -84.384499 -5.533190 -157.302994 93.428299 -0.206090 0.156029 0.117406 -0.134367 166.203003 -2.000000 2.000000 0.000000 88.923897 11.765300 -153.557999 -84.727097 0.227413 0.136146 -0.189282 0.168155 142.248001 -54.244923 7.047433 12.460671 73.380821 -0.210350 4.557857 -25.088390 -6.348116 -5.690235 -55.066940 7.544468 14.958474 71.696465 -0.099557 -4.452565 -15.436183 -14.860342 -5.569850 
-9.781806 34.150372 127.417206 0.935228 -11.024000 27.076599 -21.600599 4.235900 1.758320 7.399730 -1.131610 1.416790 -15.164576 34.701557 -26.329123 -3.360650 13.858300 -7.626650 2.000000 -2.000000 0.000000 -82.033699 -14.388800 -156.472000 93.936096 -0.204794 0.155946 0.130200 -0.141894 160.901001 -2.000000 2.000000 0.000000 86.683296 18.662300 -154.712006 -86.807198 0.222464 0.136512 -0.186586 0.167696 143.225006 -50.231171 7.426775 9.817124 75.871643 -0.382316 4.618930 -29.126188 -7.148057 -6.435349 -51.770256 8.556841 22.693420 62.850266 -0.959052 -4.070380 -11.205057 -14.032452 -4.709980 
-10.253503 34.042637 129.933578 -2.452120 -10.361800 32.862999 -21.405701 4.313550 0.628780 7.802700 -0.133346 0.772370 -14.368251 33.371078 -25.945177 -3.020420 13.567000 -7.791810 2.000000 -2.000000 0.000000 -78.543900 -24.112000 -154.919006 95.166603 -0.201658 0.155696 0.132971 -0.143322 159.787003 -2.000000 2.000000 0.000000 83.158203 26.684200 -156.671997 -88.652901 0.218063 0.136687 -0.170847 0.164054 148.996002 -46.405380 7.964540 5.961739 78.106171 -0.521832 4.638326 -32.799976 -8.413864 -7.568630 -47.214249 9.070948 28.530291 58.199863 -1.459005 -3.788230 -8.632893 -15.405213 -4.532150 
-10.719719 34.104088 132.493759 -5.847910 -9.832390 39.164700 -21.467899 4.356510 -0.620123 8.162800 0.810736 0.075770 -12.704046 31.640753 -25.119461 -2.379810 13.262500 -7.937530 2.000000 -2.000000 0.000000 -74.193604 -34.600399 -154.955994 96.201698 -0.199025 0.155433 0.124791 -0.138905 163.108002 -2.000000 2.000000 0.000000 78.957397 35.394901 -160.919006 -89.922401 0.215034 0.136725 -0.151310 0.147323 156.408005 -42.934196 9.152586 1.238920 79.631859 -0.550009 4.612614 -36.066349 -10.007155 -9.028296 -42.812180 9.454024 28.742304 57.932526 -1.532390 -3.768494 -9.526713 -17.489416 -5.231439 
-11.065146 34.461548 134.958481 -8.506320 -9.505610 44.666801 -21.827000 4.127630 -1.451500 8.376980 1.011860 -0.355068 -11.246306 30.055687 -24.586981 -1.841800 12.982700 -8.175660 2.000000 -2.000000 0.000000 111.275002 -134.466995 22.684099 96.768097 -0.197586 0.155270 0.114202 -0.132221 167.580002 -2.000000 2.000000 0.000000 -106.220001 135.781006 12.157700 -91.250397 0.212079 0.117164 -0.138639 0.141186 161.438004 -40.114590 10.725276 -3.308907 79.596771 -0.426554 4.561028 -37.924561 -11.269591 -10.165341 -39.719830 9.819130 23.790842 59.457001 -1.360817 -3.856512 -12.145411 -18.739643 -6.368623 
-11.209097 35.305771 137.237808 -9.992440 -8.821390 48.490799 -22.124300 3.538340 -1.658210 8.739590 0.592638 -0.465780 -10.629045 29.209496 -24.569237 -1.648810 12.860200 -8.422260 2.000000 -2.000000 0.000000 119.053001 -123.995003 16.875700 96.875603 -0.197313 0.155237 0.107433 -0.127304 170.569000 -2.000000 2.000000 0.000000 -113.495003 127.271004 2.481440 -93.252403 0.207646 0.116990 -0.136363 0.139934 162.365005 -36.778721 11.792539 -6.436179 77.513618 -0.164595 4.503265 -37.888138 -11.673248 -10.243814 -36.907131 9.647924 17.794983 59.892822 -1.245364 -3.903115 -14.256360 -19.084347 -7.178359 
-11.183281 36.571934 139.399200 -10.422700 -7.521770 50.422001 -22.217199 2.890610 -1.327550 9.257610 0.344749 -0.342317 -10.464144 28.859489 -24.666693 -1.567710 12.813200 -8.527170 2.000000 -2.000000 0.000000 131.843002 -115.646004 4.979000 96.611900 -0.197983 0.155316 0.106265 -0.126400 171.095993 -2.000000 2.000000 0.000000 -124.289001 119.681999 -10.455800 -95.576599 0.202512 0.116594 -0.141980 0.142939 160.089996 -32.262253 12.325261 -7.687026 73.594345 0.256179 4.349708 -35.963959 -11.607657 -9.446115 -33.134388 9.102910 13.726016 58.176689 -1.354589 -3.849691 -15.361336 -18.318422 -7.290203 
-11.033714 38.149948 141.462845 -10.337000 -6.322340 51.199001 -22.375299 2.470910 -0.805592 9.687160 0.450750 -0.135376 -9.938200 28.200562 -24.396091 -1.183790 12.635400 -8.465270 2.000000 -2.000000 0.000000 -28.191000 -69.029602 165.151993 95.674400 -0.200366 0.155573 0.111073 -0.130015 168.947006 -2.000000 2.000000 0.000000 40.525799 66.283798 152.649994 -97.109802 0.199136 0.116218 -0.149632 0.146588 157.063004 -27.225883 12.747531 -7.924085 68.282471 0.800334 4.152191 -32.294849 -11.876866 -8.409604 -28.624689 8.698752 11.526369 54.309311 -1.603334 -3.657812 -14.782872 -16.643991 -6.610926 
-10.767944 40.021248 143.423157 -9.973110 -5.781060 51.551601 -22.965000 2.130940 -0.319724 9.833630 0.460565 0.069038 -8.916101 27.179762 -23.801407 -0.608919 12.362500 -8.375390 2.000000 -2.000000 0.000000 -5.691420 -69.545799 142.822998 93.809196 -0.205118 0.155968 0.120730 -0.136478 164.796997 -2.000000 2.000000 0.000000 22.131901 69.778503 132.649002 -97.002403 0.199372 0.116248 -0.154108 0.158264 155.324005 -22.405531 13.230010 -7.999345 61.637028 1.366553 3.879409 -26.437271 -12.919244 -7.222171 -24.198574 8.616014 10.032337 48.801212 -1.936806 -3.395631 -11.740892 -14.489495 -5.129113 
-10.395420 42.173321 145.318298 -9.413060 -5.752110 52.035000 -23.915001 1.622460 -0.004631 9.902250 0.239932 0.179472 -7.612208 26.236284 -23.143536 -0.086331 12.165200 -8.355490 2.000000 -2.000000 0.000000 12.666500 -67.377296 125.317001 90.996696 -0.212301 0.156270 0.131923 -0.142790 160.207001 -2.000000 2.000000 0.000000 4.410010 70.516098 113.428001 -95.195702 0.203352 0.116673 -0.154463 0.158409 155.188004 -17.933289 13.488046 -8.400241 54.030972 2.017124 3.480380 -17.728024 -14.166463 -5.306912 -20.178022 8.580959 8.330208 42.306599 -2.254971 -3.026019 -5.566933 -12.003527 -3.176051 
-9.934541 44.523029 147.188721 -8.749700 -6.013700 52.778301 -25.100599 0.948240 0.061122 9.990230 0.019200 0.152668 -5.783036 25.098509 -22.322861 0.564567 12.026500 -8.367190 2.000000 -2.000000 0.000000 26.174000 -64.119499 113.582001 87.324699 -0.221231 0.136613 0.141092 -0.156893 156.584000 -2.000000 2.000000 0.000000 -9.424460 69.090202 98.755898 -92.031700 0.210348 0.117114 -0.153552 0.158035 155.539001 -14.009432 13.385218 -9.650545 46.177326 2.646719 3.032708 -4.842353 -13.873508 -2.052803 -17.153732 8.512741 6.195814 36.122967 -2.482125 -2.671650 4.176046 -9.910666 -1.226572 
-9.431995 46.865566 149.004120 -8.069920 -6.507740 53.605801 -26.348301 0.400302 -0.122360 10.107400 0.134451 0.004501 -3.640422 23.210730 -21.352808 1.545240 11.722700 -8.324120 2.000000 -2.000000 0.000000 36.400101 -60.502800 105.625999 82.842300 -0.231884 0.135698 0.146119 -0.149213 154.641006 -2.000000 2.000000 0.000000 -20.226200 66.347603 88.077003 -87.803299 0.220090 0.136624 -0.153628 0.158067 155.509995 -11.228859 12.875151 -11.887570 39.793739 3.125477 2.609740 10.106622 -7.626203 0.245924 -15.647594 8.313901 3.300715 31.847256 -2.549881 -2.417927 14.214569 -9.788073 0.368253 
-8.987159 49.086391 150.645370 -7.351290 -7.080590 54.298801 -27.568300 0.170551 -0.373297 10.009200 0.604840 -0.161438 -2.075404 21.238621 -20.632286 2.454140 11.356300 -8.246730 2.000000 -2.000000 0.000000 44.725700 -56.990398 99.173401 77.256401 -0.245008 0.133397 0.146475 -0.159119 154.503998 -2.000000 2.000000 0.000000 -29.517000 62.653999 79.478104 -82.715401 0.232185 0.135621 -0.153603 0.158056 155.520004 -9.842896 11.742816 -14.423299 36.726765 3.361615 2.401020 19.848248 4.357561 -2.976357 -15.585299 7.623405 -0.994052 30.781265 -2.509719 -2.387255 20.803211 -8.946387 1.075913 
